<svg height="64" viewBox="0 0 64 64" width="64" xmlns="http://www.w3.org/2000/svg"><g fill="none" fill-rule="evenodd" transform="translate(7 9)"><g fill="#fff"><path d="m0 45c0 1.656 1.343 3 3 3h9v-12h-12z"/><path d="m0 36h12v-12h-12z"/><path d="m12 48h12v-12h-12z"/><path d="m24 48h12v-12h-12z"/><path d="m12 36h12v-12h-12z"/><path d="m24 36h12v-12h-12z"/><path d="m36 36h12v-12h-12z"/><path d="m0 24h12v-12h-12z"/><path d="m12 24h12v-12h-12z"/><path d="m24 24h12v-12h-12z"/><path d="m36 24h12v-12h-12z"/></g><path d="m45 0h-42c-1.657 0-3 1.344-3 3v9h48v-9c0-1.656-1.343-3-3-3" fill="#4baadc"/><path d="m36 36v12h9c1.657 0 3-1.344 3-3v-9z" fill="#fff"/><path d="m45 0h-42c-1.657 0-3 1.343-3 3v42c0 1.657 1.343 3 3 3h42c1.657 0 3-1.343 3-3v-42c0-1.657-1.343-3-3-3z" stroke="#1e69a0" stroke-linecap="round" stroke-linejoin="round" stroke-width="2"/><path d="m0 12h48" stroke="#1e69a0" stroke-linecap="round" stroke-linejoin="round" stroke-width="2"/><path d="m0 24h48" stroke="#1e69a0" stroke-linecap="round" stroke-linejoin="round" stroke-width="2"/><path d="m0 36h48" stroke="#1e69a0" stroke-linecap="round" stroke-linejoin="round" stroke-width="2"/><path d="m24 12v36" stroke="#1e69a0" stroke-linecap="round" stroke-linejoin="round" stroke-width="2"/><path d="m36 12v36" stroke="#1e69a0" stroke-linecap="round" stroke-linejoin="round" stroke-width="2"/><path d="m12 12v36" stroke="#1e69a0" stroke-linecap="round" stroke-linejoin="round" stroke-width="2"/></g></svg>